<svg version="1.1" xmlns="http://www.w3.org/2000/svg" viewBox="0 0 1674 1146" width="1674" height="1146">
  <!-- svg-source:excalidraw -->
  
  <defs>
    <style class="style-fonts">
      @font-face {
        font-family: "Virgil";
        src: url("https://excalidraw.com/Virgil.woff2");
      }
      @font-face {
        font-family: "Cascadia";
        src: url("https://excalidraw.com/Cascadia.woff2");
      }
    </style>
  </defs>
  <rect x="0" y="0" width="1674" height="1146" fill="#ffffff"></rect><g stroke-linecap="round" transform="translate(421 868) rotate(0 166 34.5)"><path d="M17.25 0 M17.25 0 C78.46 -0.4, 142.79 -1.4, 314.75 0 M17.25 0 C101.44 -1.1, 184.8 -1.34, 314.75 0 M314.75 0 C324.9 -0.04, 330.47 4.42, 332 17.25 M314.75 0 C327.83 -0.58, 332.83 4.53, 332 17.25 M332 17.25 C331.88 27.56, 332.87 37.21, 332 51.75 M332 17.25 C331.67 27.22, 331.72 36.85, 332 51.75 M332 51.75 C331.68 64.29, 326.59 68.12, 314.75 69 M332 51.75 C330.71 65.43, 327.48 70.87, 314.75 69 M314.75 69 C208.09 70.63, 103.34 70.84, 17.25 69 M314.75 69 C215.7 68.32, 117.81 68.74, 17.25 69 M17.25 69 C4.47 69.68, -0.96 61.93, 0 51.75 M17.25 69 C6.91 67.9, -0.37 62.02, 0 51.75 M0 51.75 C-0.33 38.42, -0.68 28.52, 0 17.25 M0 51.75 C0.94 41.87, 0.04 31.13, 0 17.25 M0 17.25 C0.66 6.27, 4.04 -1.14, 17.25 0 M0 17.25 C-0.09 6.54, 4.37 1.38, 17.25 0" stroke="#000000" stroke-width="1" fill="none"></path></g><g transform="translate(480 886.5) rotate(0 111.5 18)"><text x="0" y="25" font-family="Virgil, Segoe UI Emoji" font-size="28px" fill="#000000" text-anchor="start" style="white-space: pre;" direction="ltr">motion detected</text></g><g transform="translate(535 1049.5) rotate(0 65 18)"><text x="0" y="25" font-family="Virgil, Segoe UI Emoji" font-size="28px" fill="#000000" text-anchor="start" style="white-space: pre;" direction="ltr">On state</text></g><g stroke-linecap="round" transform="translate(487 1002) rotate(0 110 67)"><path d="M138.75 17 M138.75 17 C153.51 25.99, 163.88 33.86, 192.25 51 M138.75 17 C156.36 28.62, 174.81 38.79, 192.25 51 M192.25 51 C218.28 68.51, 220.76 66.9, 192.25 85 M192.25 51 C218.64 70.02, 220.41 69.83, 192.25 85 M192.25 85 C177.04 91.56, 162.37 102.19, 138.75 117 M192.25 85 C176.81 94, 162.62 102.68, 138.75 117 M138.75 117 C110.24 135.56, 111.77 132.81, 83.25 117 M138.75 117 C110.34 133.66, 110.99 134.79, 83.25 117 M83.25 117 C63.13 107.24, 44.31 95.47, 27.75 85 M83.25 117 C65 107.03, 46.06 96.61, 27.75 85 M27.75 85 C-0.07 69.81, -0.44 69.54, 27.75 51 M27.75 85 C1.51 67.5, 0 69.29, 27.75 51 M27.75 51 C41.72 42.89, 58.67 34.81, 83.25 17 M27.75 51 C48.26 38.24, 70.25 25.21, 83.25 17 M83.25 17 C109 0.42, 109.75 0.57, 138.75 17 M83.25 17 C109.24 -1.41, 109.99 2.21, 138.75 17" stroke="#000000" stroke-width="1" fill="none"></path></g><g stroke-linecap="round"><g transform="translate(595 1006) rotate(0 0.6217188441130475 -34.13797824387902)"><path d="M-0.38 0.67 C-0.4 -10.66, 0.72 -55.6, 0.75 -67.23 M1.62 -0.03 C1.44 -11.76, 0.64 -57.56, 0.2 -68.94" stroke="#000000" stroke-width="1" fill="none"></path></g></g><mask></mask><g stroke-linecap="round"><g transform="translate(594 866) rotate(0 0.29408451302521144 -59.001412185761126)"><path d="M-0.61 -0.91 C-0.49 -20.83, -0.19 -99.51, -0.18 -119.23 M1.28 1.23 C1.39 -18.54, -0.31 -97.93, -0.69 -117.81" stroke="#000000" stroke-width="1" fill="none"></path></g></g><mask></mask><g transform="translate(480 688.5) rotate(0 117.5 18)"><text x="0" y="25" font-family="Virgil, Segoe UI Emoji" font-size="28px" fill="#000000" text-anchor="start" style="white-space: pre;" direction="ltr">facial recognition</text></g><g stroke-linecap="round" transform="translate(447 667) rotate(0 146.5 39.5)"><path d="M19.75 0 M19.75 0 C72.59 -0.6, 125.98 -0.43, 273.25 0 M19.75 0 C94.53 0.64, 167.34 0.79, 273.25 0 M273.25 0 C284.46 -1.96, 293.39 5.4, 293 19.75 M273.25 0 C285.69 0.43, 291.49 5.8, 293 19.75 M293 19.75 C294.3 27.41, 292.41 38.38, 293 59.25 M293 19.75 C292.3 32.68, 292.97 44.42, 293 59.25 M293 59.25 C294.7 72.73, 285.6 79.16, 273.25 79 M293 59.25 C293.52 73.55, 285.08 77.35, 273.25 79 M273.25 79 C202.07 80.57, 132.54 80.84, 19.75 79 M273.25 79 C206.74 77.13, 140.24 77.74, 19.75 79 M19.75 79 C8.5 79.56, 0.45 73.5, 0 59.25 M19.75 79 C8.46 76.73, 1.78 71.5, 0 59.25 M0 59.25 C1.68 47.79, -1.68 36.47, 0 19.75 M0 59.25 C0.95 43.48, -0.32 29.89, 0 19.75 M0 19.75 C1.64 4.85, 8.45 0.68, 19.75 0 M0 19.75 C-0.36 6.34, 5.54 0.37, 19.75 0" stroke="#000000" stroke-width="1" fill="none"></path></g><g stroke-linecap="round"><g transform="translate(1091 486) rotate(0 80.48394950074612 -88.09966658130288)"><path d="M0.22 -0.46 C27.23 -29.57, 135.18 -146.5, 162.1 -175.74 M-1.13 -1.75 C25.73 -30.63, 134.22 -145.71, 161.2 -174.59" stroke="#000000" stroke-width="1" fill="none"></path></g></g><mask></mask><g stroke-linecap="round"><g transform="translate(1088 486) rotate(0 -77.3748132755095 -91.42162211974617)"><path d="M-0.63 -0.97 C-26.43 -31.75, -130.21 -153.57, -155.99 -183.98 M1.24 1.14 C-24.1 -29.58, -127.55 -152.37, -153.8 -182.96" stroke="#000000" stroke-width="1" fill="none"></path></g></g><mask></mask><g transform="translate(1206 261.5) rotate(0 69.5 18)"><text x="0" y="25" font-family="Virgil, Segoe UI Emoji" font-size="28px" fill="#000000" text-anchor="start" style="white-space: pre;" direction="ltr">recognized</text></g><g transform="translate(839 253.5) rotate(0 84 18)"><text x="0" y="25" font-family="Virgil, Segoe UI Emoji" font-size="28px" fill="#000000" text-anchor="start" style="white-space: pre;" direction="ltr">unrecognized</text></g><g stroke-linecap="round" transform="translate(803 234) rotate(0 117.5 34)"><path d="M120.59 0.24 C135.86 -0.42, 154.93 0.68, 169.39 2.68 C183.84 4.69, 197.04 8.5, 207.31 12.25 C217.59 16, 226.69 20.92, 231.06 25.2 C235.42 29.48, 235.95 33.4, 233.49 37.93 C231.02 42.47, 224.54 48.45, 216.29 52.39 C208.05 56.33, 197.15 59.14, 184.02 61.57 C170.89 64, 153.38 65.91, 137.51 66.98 C121.65 68.04, 104.11 68.97, 88.83 67.98 C73.55 66.99, 58.2 63.91, 45.84 61.04 C33.48 58.17, 22.25 54.8, 14.68 50.76 C7.11 46.71, 1.53 41.49, 0.41 36.77 C-0.7 32.05, 2.42 26.98, 7.99 22.45 C13.55 17.92, 22.82 12.82, 33.79 9.59 C44.76 6.36, 56.55 4.67, 73.8 3.05 C91.04 1.43, 124.49 -0.06, 137.26 -0.13 C150.03 -0.2, 150.79 2.08, 150.44 2.62 M121.93 -0.84 C136.98 -1.14, 154.65 1.86, 168.89 4.19 C183.13 6.53, 197.01 9.88, 207.39 13.15 C217.77 16.42, 226.54 19.39, 231.15 23.8 C235.75 28.21, 237.33 34.91, 235.02 39.63 C232.71 44.35, 225.73 48.39, 217.28 52.14 C208.83 55.89, 197.24 59.48, 184.32 62.13 C171.39 64.79, 155.8 67.39, 139.73 68.08 C123.67 68.77, 103.5 67.63, 87.94 66.26 C72.38 64.9, 58.92 62.61, 46.38 59.9 C33.83 57.19, 20.25 54.13, 12.67 50 C5.09 45.86, 1.96 39.61, 0.89 35.08 C-0.19 30.55, 0.84 26.75, 6.2 22.8 C11.57 18.85, 21.94 15, 33.08 11.4 C44.23 7.81, 58.23 3.09, 73.08 1.23 C87.93 -0.62, 114.18 0.46, 122.18 0.28 C130.19 0.1, 121.23 -0.59, 121.12 0.15" stroke="#000000" stroke-width="1" fill="none"></path></g><g stroke-linecap="round" transform="translate(1180 252) rotate(0 96 28)"><path d="M118.8 0.84 C132.18 1.39, 146.7 4.15, 157.3 6.81 C167.9 9.48, 176.51 13.27, 182.41 16.84 C188.3 20.41, 192.7 24.21, 192.67 28.23 C192.64 32.24, 188.48 37.12, 182.23 40.93 C175.97 44.73, 166.03 48.79, 155.13 51.03 C144.24 53.27, 130.52 53.55, 116.87 54.36 C103.22 55.16, 86.92 56.76, 73.24 55.85 C59.55 54.94, 45.48 51.48, 34.78 48.88 C24.09 46.29, 15.02 43.9, 9.07 40.29 C3.12 36.68, -1.11 31.3, -0.93 27.23 C-0.75 23.15, 3.73 19.41, 10.13 15.85 C16.54 12.3, 26.74 8.33, 37.5 5.9 C48.26 3.47, 59.18 1.96, 74.69 1.28 C90.19 0.6, 119.56 1.32, 130.54 1.84 C141.53 2.35, 141.05 3.86, 140.59 4.37 M125.06 -0.05 C138.38 0.39, 152.83 4.02, 162.86 7.03 C172.89 10.05, 180.26 13.89, 185.23 18.04 C190.2 22.19, 193.96 27.81, 192.7 31.94 C191.44 36.06, 184.75 39.41, 177.66 42.78 C170.57 46.15, 161.61 50.21, 150.16 52.16 C138.72 54.12, 123.01 53.98, 109.01 54.53 C95.02 55.08, 79.54 56.59, 66.19 55.47 C52.85 54.35, 39.03 50.65, 28.92 47.8 C18.81 44.95, 10.4 41.88, 5.52 38.4 C0.64 34.91, -1.75 30.94, -0.37 26.89 C1.02 22.85, 6.77 17.84, 13.85 14.14 C20.92 10.43, 30.44 7, 42.07 4.65 C53.71 2.3, 69.81 0.55, 83.65 0.03 C97.49 -0.48, 118.39 1.39, 125.12 1.55 C131.85 1.72, 124.3 0.47, 124.03 1.02" stroke="#000000" stroke-width="1" fill="none"></path></g><g stroke-linecap="round"><g transform="translate(918 232) rotate(0 -25.446128968191374 -57.48877333021723)"><path d="M0.41 -0.59 C-8.01 -19.62, -42.25 -95.53, -50.92 -114.72 M-0.84 1.72 C-9.29 -17.65, -42.74 -97.28, -51.3 -116.69" stroke="#000000" stroke-width="1" fill="none"></path></g></g><mask></mask><g stroke-linecap="round"><g transform="translate(1277 251) rotate(0 34.227001187950464 -69.77787936483973)"><path d="M-0.91 -0.23 C10.64 -23.07, 57.82 -114.55, 69.36 -137.82 M0.82 -1.39 C12.22 -24.47, 57.54 -116.39, 68.6 -139.33" stroke="#000000" stroke-width="1" fill="none"></path></g></g><mask></mask><g transform="translate(1186 41.5) rotate(0 236.5 26)"><text x="0" y="18" font-family="Virgil, Segoe UI Emoji" font-size="20px" fill="#000000" text-anchor="start" style="white-space: pre;" direction="ltr">stores a single picture, alongside a timestamp, </text><text x="0" y="44" font-family="Virgil, Segoe UI Emoji" font-size="20px" fill="#000000" text-anchor="start" style="white-space: pre;" direction="ltr">automatically deleted after 3 or so days</text></g><g stroke-linecap="round" transform="translate(1158 23) rotate(0 253 43)"><path d="M21.5 0 M21.5 0 C128.71 -1.64, 236.27 -1.73, 484.5 0 M21.5 0 C135.04 1.46, 249.13 1.08, 484.5 0 M484.5 0 C498.36 -0.43, 507.58 6.84, 506 21.5 M484.5 0 C499.79 -2.13, 504.34 8, 506 21.5 M506 21.5 C506.68 29.24, 506.99 39.43, 506 64.5 M506 21.5 C505.61 31.1, 505.28 43.29, 506 64.5 M506 64.5 C505.17 80.59, 500.15 87.6, 484.5 86 M506 64.5 C504.28 79.87, 498.28 86.77, 484.5 86 M484.5 86 C377.64 87.46, 271.75 87.83, 21.5 86 M484.5 86 C321.17 87.11, 158.63 87.07, 21.5 86 M21.5 86 C6.46 87.95, 0.17 78.47, 0 64.5 M21.5 86 C5.17 84.21, -1.14 78.32, 0 64.5 M0 64.5 C-0.53 50.58, -1.78 34.03, 0 21.5 M0 64.5 C0.51 54.82, 0.09 43.77, 0 21.5 M0 21.5 C1.23 7.5, 8.26 0.62, 21.5 0 M0 21.5 C1.22 9.4, 7.56 -1.73, 21.5 0" stroke="#000000" stroke-width="1" fill="none"></path></g><g transform="translate(822 554.5) rotate(0 53.5 18)"><text x="0" y="25" font-family="Virgil, Segoe UI Emoji" font-size="28px" fill="#000000" text-anchor="start" style="white-space: pre;" direction="ltr">success</text></g><g stroke-linecap="round" transform="translate(804 543) rotate(0 68.5 30.5)"><path d="M41.07 2.07 C50.43 -0.34, 64.69 -1.38, 76.18 -0.63 C87.66 0.12, 100.68 3.54, 110 6.58 C119.32 9.62, 127.62 13.05, 132.07 17.62 C136.52 22.2, 138.11 29, 136.71 34.02 C135.3 39.05, 130.51 43.71, 123.64 47.77 C116.76 51.82, 106.1 56.02, 95.45 58.35 C84.79 60.67, 70.94 62.29, 59.7 61.74 C48.46 61.2, 36.86 58.25, 27.99 55.08 C19.13 51.92, 11.05 47.28, 6.5 42.74 C1.95 38.19, -0.36 33.07, 0.67 27.82 C1.71 22.58, 4.82 15.63, 12.73 11.27 C20.65 6.91, 41.34 3.18, 48.17 1.65 C55 0.12, 53.52 1.65, 53.7 2.11 M91.62 1.42 C102.11 2.8, 112 7.68, 119.35 11.4 C126.69 15.11, 133.34 18.8, 135.71 23.69 C138.08 28.59, 137.16 35.96, 133.56 40.76 C129.96 45.56, 122.93 49.3, 114.13 52.49 C105.33 55.69, 92.05 58.71, 80.77 59.94 C69.49 61.17, 57.19 61.55, 46.45 59.86 C35.72 58.17, 24.06 53.84, 16.37 49.79 C8.67 45.74, 2.28 40.48, 0.29 35.57 C-1.71 30.65, 0.43 24.9, 4.38 20.29 C8.34 15.68, 15.44 11.18, 24 7.91 C32.56 4.64, 44.77 1.52, 55.73 0.66 C66.7 -0.2, 83.86 2.66, 89.78 2.74 C95.69 2.82, 91.26 1.02, 91.24 1.14" stroke="#000000" stroke-width="1" fill="none"></path></g><g stroke-linecap="round"><g transform="translate(594 665) rotate(0 103.98623942360285 -44.846669686916286)"><path d="M-1.2 1.13 C33.49 -13.5, 173.99 -73.76, 209.17 -88.8 M0.37 0.68 C34.82 -14.25, 173.44 -76.06, 208.31 -90.82" stroke="#000000" stroke-width="1" fill="none"></path></g></g><mask></mask><g stroke-linecap="round"><g transform="translate(936 558) rotate(0 75.69193601471841 -37.84809328829403)"><path d="M-0.21 0.39 C25.14 -12.13, 127.7 -61.61, 153.17 -74.32 M-1.78 -0.45 C23.42 -13.38, 127.18 -63.66, 152.83 -76.08" stroke="#000000" stroke-width="1" fill="none"></path></g></g><mask></mask><g transform="translate(270 541.5) rotate(0 45.5 18)"><text x="0" y="25" font-family="Virgil, Segoe UI Emoji" font-size="28px" fill="#000000" text-anchor="start" style="white-space: pre;" direction="ltr">failure</text></g><g stroke-linecap="round" transform="translate(240 530) rotate(0 76.5 29.5)"><path d="M97.76 0.92 C108.86 1.58, 121.51 4.88, 129.94 8.27 C138.37 11.65, 144.62 16.9, 148.32 21.23 C152.02 25.57, 154.04 29.78, 152.14 34.28 C150.23 38.78, 144.18 44.6, 136.89 48.23 C129.61 51.86, 119.23 54.33, 108.43 56.07 C97.62 57.81, 83.96 58.95, 72.08 58.67 C60.2 58.38, 47.34 56.45, 37.15 54.35 C26.96 52.24, 17 49.74, 10.96 46.06 C4.92 42.38, 1.56 37.03, 0.91 32.25 C0.27 27.47, 2.65 21.71, 7.09 17.4 C11.53 13.09, 18.64 9.15, 27.57 6.39 C36.5 3.62, 48.2 1.54, 60.67 0.82 C73.14 0.09, 94.68 1.55, 102.37 2.05 C110.05 2.54, 107.13 3.49, 106.77 3.8 M49.39 0.91 C59.21 -1.01, 74.25 -1.31, 86.15 -0.33 C98.05 0.66, 110.89 4.22, 120.79 6.8 C130.69 9.38, 140.12 11.24, 145.55 15.15 C150.99 19.07, 153.68 25.49, 153.38 30.29 C153.08 35.09, 149.53 40.23, 143.75 43.97 C137.97 47.72, 128.68 50.32, 118.7 52.77 C108.73 55.23, 95.53 57.88, 83.92 58.69 C72.31 59.5, 59.96 59.32, 49.05 57.63 C38.15 55.93, 26.15 52.1, 18.47 48.52 C10.79 44.94, 5.74 40.63, 2.97 36.14 C0.19 31.65, -1.28 25.86, 1.8 21.6 C4.87 17.34, 13.36 14.1, 21.4 10.57 C29.44 7.04, 45.04 1.76, 50.05 0.43 C55.06 -0.91, 51.01 1.99, 51.43 2.56" stroke="#000000" stroke-width="1" fill="none"></path></g><g stroke-linecap="round"><g transform="translate(382 576) rotate(0 104.17790324178992 46.06738444025163)"><path d="M-1.09 -0.65 C33.25 14.64, 172.37 75.9, 207.17 91.51 M0.54 1.62 C35.16 17.1, 175.07 77.86, 209.45 92.79" stroke="#000000" stroke-width="1" fill="none"></path></g></g><mask></mask><g transform="translate(657 18.5) rotate(0 224.5 39)"><text x="0" y="18" font-family="Virgil, Segoe UI Emoji" font-size="20px" fill="#000000" text-anchor="start" style="white-space: pre;" direction="ltr">stores the entire clip, alongside a timestamp,</text><text x="0" y="44" font-family="Virgil, Segoe UI Emoji" font-size="20px" fill="#000000" text-anchor="start" style="white-space: pre;" direction="ltr">sends a notification, logs the incident, is not</text><text x="0" y="70" font-family="Virgil, Segoe UI Emoji" font-size="20px" fill="#000000" text-anchor="start" style="white-space: pre;" direction="ltr">automatically deleted</text></g><g stroke-linecap="round" transform="translate(638 10) rotate(0 240 52)"><path d="M26 0 M26 0 C179.51 0.17, 333.75 1.37, 454 0 M26 0 C168.64 -0.3, 311.71 -0.41, 454 0 M454 0 C469.94 1.84, 479.7 9.85, 480 26 M454 0 C471.64 1.49, 479.18 9.41, 480 26 M480 26 C478.07 41.35, 479.86 58.54, 480 78 M480 26 C480.08 41.39, 479.1 57.52, 480 78 M480 78 C480.31 93.63, 473.16 104.52, 454 104 M480 78 C480.08 93.04, 472.34 103.02, 454 104 M454 104 C289.09 105.33, 126.46 105.65, 26 104 M454 104 C323.7 103.44, 193.89 103.33, 26 104 M26 104 C10.46 102.37, 1.35 96.86, 0 78 M26 104 C9.04 103.91, 0.67 96.17, 0 78 M0 78 C0.04 65.68, 1.57 51.5, 0 26 M0 78 C-0.16 63.28, -0.3 49.22, 0 26 M0 26 C-1.12 6.71, 8.74 0.52, 26 0 M0 26 C1.39 10.16, 10.17 -0.9, 26 0" stroke="#000000" stroke-width="1" fill="none"></path></g><g transform="translate(28 283) rotate(0 227.5 39)"><text x="0" y="18" font-family="Virgil, Segoe UI Emoji" font-size="20px" fill="#000000" text-anchor="start" style="white-space: pre;" direction="ltr">stores the entire clip, alongside a timestamp,</text><text x="0" y="44" font-family="Virgil, Segoe UI Emoji" font-size="20px" fill="#000000" text-anchor="start" style="white-space: pre;" direction="ltr">logs the incident, automatically deleted after</text><text x="0" y="70" font-family="Virgil, Segoe UI Emoji" font-size="20px" fill="#000000" text-anchor="start" style="white-space: pre;" direction="ltr">a month or so </text></g><g stroke-linecap="round" transform="translate(10 277) rotate(0 245 46.5)"><path d="M23.25 0 M23.25 0 C156.44 1.56, 290.67 2.29, 466.75 0 M23.25 0 C188.02 0.21, 352.85 -0.1, 466.75 0 M466.75 0 C481.32 0.74, 488.93 7.4, 490 23.25 M466.75 0 C481.78 2.05, 490.08 7.64, 490 23.25 M490 23.25 C491.92 36.79, 490.18 52.93, 490 69.75 M490 23.25 C489.33 36.29, 490.13 49.79, 490 69.75 M490 69.75 C489.08 85.26, 483.47 93.38, 466.75 93 M490 69.75 C491.16 85.01, 482.54 91.2, 466.75 93 M466.75 93 C328.71 95.16, 189.23 94.82, 23.25 93 M466.75 93 C366.28 92.63, 266.17 92.36, 23.25 93 M23.25 93 C9.39 93.22, -1.93 85.09, 0 69.75 M23.25 93 C7.85 94.51, 1.34 86.79, 0 69.75 M0 69.75 C-0.12 54.37, -1.29 39.06, 0 23.25 M0 69.75 C-0.09 54.42, 1.32 37.64, 0 23.25 M0 23.25 C1.54 9.67, 6.22 1.09, 23.25 0 M0 23.25 C1.89 8.04, 9 2.02, 23.25 0" stroke="#000000" stroke-width="1" fill="none"></path></g><g stroke-linecap="round"><g transform="translate(312 527) rotate(0 -38.527590970741585 -78.99906418120023)"><path d="M-0.69 0.68 C-13.65 -25.36, -64.7 -130.72, -77.86 -157.05 M1.15 -0.01 C-11.85 -26.3, -64.56 -132.13, -78.21 -158.68" stroke="#000000" stroke-width="1" fill="none"></path></g></g><mask></mask></svg>